<?xml version="1.0" standalone="no"?>
<!DOCTYPE svg PUBLIC "-//W3C//DTD SVG 20010904//EN"
 "http://www.w3.org/TR/2001/REC-SVG-20010904/DTD/svg10.dtd">
<svg version="1.0" xmlns="http://www.w3.org/2000/svg"
 width="538.000000pt" height="107.000000pt" viewBox="0 0 538.000000 107.000000"
 preserveAspectRatio="xMidYMid meet">

<g transform="translate(0.000000,107.000000) scale(0.100000,-0.100000)"
fill="#000000" stroke="none">
<path d="M0 535 l0 -535 545 0 545 0 0 535 0 535 -545 0 -545 0 0 -535z m486
331 l52 -98 25 43 c13 24 37 68 53 98 36 67 54 76 54 27 0 -44 8 -45 45 -6 44
46 55 40 55 -31 l0 -61 49 36 c27 20 54 36 60 36 8 0 11 -84 11 -294 l0 -294
-137 -103 c-76 -56 -154 -107 -173 -112 -52 -14 -99 -2 -156 41 -27 20 -91 67
-142 105 l-92 68 0 294 c0 190 4 295 10 295 5 0 32 -16 60 -36 l50 -36 0 61
c0 71 9 76 57 29 l33 -32 0 30 c0 33 8 46 24 41 5 -2 33 -47 62 -101z"/>
<path d="M340 863 l0 -51 83 -56 c109 -74 126 -74 235 0 l82 57 0 51 0 51
-101 -105 -101 -105 -99 105 -99 104 0 -51z"/>
<path d="M440 868 c0 -9 7 -22 17 -29 15 -13 15 -12 3 11 -17 34 -20 36 -20
18z"/>
<path d="M621 854 c-12 -27 -11 -28 4 -12 10 9 16 21 13 28 -2 7 -10 -1 -17
-16z"/>
<path d="M220 601 l0 -260 78 -59 c42 -32 92 -68 110 -81 l32 -22 0 263 -1
263 -96 70 c-53 39 -103 74 -110 78 -11 7 -13 -40 -13 -252z"/>
<path d="M748 783 l-107 -78 -1 -263 0 -264 53 38 c28 21 79 59 112 84 l60 45
-2 250 c-2 137 -4 253 -6 258 -1 4 -51 -27 -109 -70z m72 -83 c0 -5 -30 -30
-66 -56 -45 -32 -69 -43 -76 -36 -7 7 11 26 57 61 62 46 85 55 85 31z m0 -73
c0 -20 -130 -111 -142 -99 -7 7 12 28 54 61 64 51 88 61 88 38z"/>
<path d="M470 416 c0 -235 2 -260 18 -272 23 -18 73 -17 100 2 22 15 22 18 22
272 l0 257 -70 0 -70 0 0 -259z"/>
<path d="M1120 535 l0 -535 2130 0 2130 0 0 535 0 535 -2130 0 -2130 0 0 -535z
m390 165 c0 -44 1 -80 3 -80 1 0 20 7 42 15 112 40 231 -7 264 -104 6 -19 11
-81 11 -137 l0 -104 -45 0 -45 0 0 100 c0 112 -12 149 -55 168 -37 17 -101 15
-141 -4 l-34 -16 0 -124 0 -124 -45 0 -45 0 0 245 0 245 45 0 45 0 0 -80z
m2290 -165 l0 -245 -45 0 -45 0 0 245 0 245 45 0 45 0 0 -245z m202 104 l3
-140 77 70 76 71 69 0 68 -1 -35 -31 c-19 -17 -59 -53 -89 -80 l-54 -49 94
-95 94 -94 -66 0 -65 0 -59 60 c-33 33 -64 60 -69 60 -25 0 -46 -35 -46 -77
l0 -43 -45 0 -45 0 0 245 0 245 45 0 44 0 3 -141z m-970 59 l3 -53 43 -3 c39
-3 42 -5 42 -32 0 -27 -3 -29 -42 -32 l-43 -3 -3 -142 -3 -143 -44 0 -45 0 0
145 0 145 -40 0 c-38 0 -40 2 -40 30 0 28 2 30 40 30 l40 0 0 55 0 55 44 0 45
0 3 -52z m1988 -3 l0 -55 40 0 c38 0 40 -2 40 -30 0 -28 -2 -30 -40 -30 l-40
0 0 -145 0 -145 -45 0 -45 0 0 145 0 145 -45 0 c-43 0 -45 1 -45 30 0 29 2 30
45 30 l45 0 0 55 0 55 45 0 45 0 0 -55z m-2772 -75 c55 -31 84 -74 90 -131 6
-62 -2 -90 -35 -130 -40 -47 -95 -69 -178 -69 -136 0 -215 67 -215 181 0 69
52 137 126 165 56 21 160 13 212 -16z m442 19 c36 -5 68 -13 72 -17 4 -5 2
-22 -4 -40 -9 -23 -17 -31 -28 -26 -84 33 -205 20 -205 -21 0 -21 3 -21 193
-24 46 -1 92 -47 92 -93 0 -51 -31 -93 -84 -113 -57 -22 -221 -17 -279 8 l-38
16 16 31 c18 34 24 35 80 15 60 -21 167 -19 196 3 14 12 20 25 16 36 -6 14
-22 16 -110 15 -78 -1 -112 3 -136 15 -56 30 -59 119 -4 164 51 41 110 50 223
31z m771 1 c83 -23 149 -101 149 -177 l0 -33 -167 0 -166 0 23 -25 c33 -35
113 -51 186 -36 63 12 69 10 79 -30 6 -24 3 -28 -30 -39 -23 -8 -73 -11 -129
-8 -111 5 -168 31 -203 93 -84 148 76 305 258 255z m999 -110 c0 -104 2 -112
24 -135 35 -35 88 -42 145 -19 l46 20 3 122 3 122 44 0 45 0 0 -175 0 -175
-45 0 c-33 0 -45 4 -45 14 0 13 -5 13 -37 0 -53 -23 -172 -16 -210 12 -51 37
-63 76 -63 207 l0 117 45 0 45 0 0 -110z"/>
<path d="M2053 550 c-56 -34 -68 -81 -33 -137 54 -89 230 -52 230 49 0 88
-114 139 -197 88z"/>
<path d="M3340 559 c-28 -11 -60 -38 -60 -51 0 -4 52 -8 116 -8 105 0 115 2
112 18 -7 39 -109 64 -168 41z"/>
</g>
</svg>
